<svg width="64" height="64" viewBox="0 0 64 64" fill="none" xmlns="http://www.w3.org/2000/svg">
<g id="Globe">
<path id="Vector" d="M30.6997 0.161943C28.9869 0.637016 26.9491 2.38729 25.4364 4.67515C23.5736 7.48808 21.7983 11.8638 20.7731 16.1394L20.4856 17.3646H31.9624H43.4392L43.1516 16.1394C42.1265 11.8638 40.3512 7.47558 38.4884 4.67515C37.4382 3.0874 35.688 1.32463 34.6003 0.749535C33.2001 0.011919 31.9499 -0.17561 30.6997 0.161943Z" fill="#20C4F4"/>
<path id="Vector_2" d="M21.3983 1.7872C19.3855 2.51231 18.5104 2.87487 16.9601 3.69999C11.3967 6.65045 7.00856 11.0011 3.85807 16.6395L3.45801 17.3646H10.0465H16.6476L17.1851 15.1393C18.4103 10.0885 20.2606 5.58779 22.386 2.48731C23.2611 1.21211 23.2486 1.23711 23.0611 1.24961C22.9735 1.24961 22.2234 1.48715 21.3983 1.7872Z" fill="#20C4F4"/>
<path id="Vector_3" d="M40.8013 1.39963C40.8513 1.48715 41.1889 1.97472 41.5389 2.4873C43.6643 5.60029 45.6271 10.401 46.7897 15.3268L47.2648 17.3646H53.8659H60.4544L59.8793 16.327C56.0787 9.46339 49.7902 4.25008 42.1765 1.64967C40.8138 1.1871 40.6513 1.1621 40.8013 1.39963Z" fill="#20C4F4"/>
<path id="Vector_4" d="M1.45769 22.3278C0.420031 25.5658 0.0324707 28.2037 0.0324707 31.9918C0.0324707 35.7799 0.420031 38.4178 1.45769 41.6433L1.84525 42.8685H8.92136H15.9975L15.9224 42.1434C15.5349 38.5929 15.4474 37.5177 15.3474 34.9423C15.2723 33.142 15.2723 30.8417 15.3474 29.0414C15.4474 26.466 15.5349 25.3908 15.9224 21.8278L15.9975 21.1151H8.92136H1.84525L1.45769 22.3278Z" fill="#20C4F4"/>
<path id="Vector_5" d="M19.7855 21.3277C19.698 21.6277 19.3729 24.6907 19.1979 26.741C19.0229 28.9664 19.0229 34.9548 19.1979 37.2427C19.3479 39.1304 19.673 42.1059 19.773 42.581L19.8355 42.8685H31.9624C43.3892 42.8685 44.0768 42.856 44.1393 42.6435C44.1768 42.531 44.3268 41.3683 44.4644 40.0681C45.0144 35.0298 45.0144 28.9539 44.4644 23.9156C44.3268 22.6154 44.1768 21.4527 44.1393 21.3277C44.0768 21.1276 43.3892 21.1151 31.9624 21.1151C20.5356 21.1151 19.848 21.1276 19.7855 21.3277Z" fill="#20C4F4"/>
<path id="Vector_6" d="M48.0025 21.8278C48.4026 25.4158 48.4776 26.516 48.5776 29.0664C48.6401 30.7291 48.6401 33.2545 48.5776 34.9173C48.4776 37.4677 48.4026 38.5679 48.0025 42.1434L47.9275 42.8685H55.0036H62.0797L62.5173 41.4933C63.4049 38.6804 63.9675 35.0298 63.9675 31.9918C63.9675 28.9539 63.4049 25.3033 62.5173 22.4904L62.0797 21.1151H55.0036H47.9275L48.0025 21.8278Z" fill="#20C4F4"/>
<path id="Vector_7" d="M4.04555 47.6444C7.35856 53.6453 12.9844 58.7336 19.1854 61.3465C20.7106 61.9841 23.0735 62.8092 23.1485 62.7217C23.1735 62.6967 22.8735 62.1966 22.4734 61.6216C20.2606 58.4086 18.3103 53.6578 17.1351 48.6445L16.66 46.6192H10.059H3.47046L4.04555 47.6444Z" fill="#20C4F4"/>
<path id="Vector_8" d="M20.7731 47.8319C21.4983 50.8573 22.4734 53.6453 23.7236 56.2457C24.8988 58.6585 25.999 60.2963 27.3867 61.684C30.4997 64.772 33.4376 64.772 36.5256 61.684C39.2135 59.0086 41.3513 54.6704 42.9016 48.707L43.4392 46.6192H31.9624H20.4856L20.7731 47.8319Z" fill="#20C4F4"/>
<path id="Vector_9" d="M46.7523 48.782C45.5021 53.9078 43.8018 58.0709 41.6515 61.3089C41.1514 62.0591 40.7764 62.6967 40.8264 62.7217C40.8764 62.7342 41.4765 62.5591 42.1641 62.3341C49.7778 59.7462 56.0788 54.5204 59.8793 47.6443L60.4544 46.6192H53.8659H47.2774L46.7523 48.782Z" fill="#20C4F4"/>
</g>
</svg>
