<svg width="64" height="64" viewBox="0 0 64 64" fill="none" xmlns="http://www.w3.org/2000/svg">
<g id="Frame 45">
<path id="Vector" d="M12.8222 1.625C12.8698 2.50797 12.1666 3.25 11.2824 3.25H10.1097C5.73475 3.25 4.55975 3.4625 2.97225 4.55C1.54725 5.525 0.534747 7.0875 0.172247 8.8625C-0.00275264 9.675 -0.0152526 10.075 0.109747 11.6625C1.20975 25.75 7.57225 35.6875 18.0722 39.7125C19.4847 40.2625 22.1347 40.9375 23.5847 41.1375C24.1972 41.225 24.7472 41.3375 24.8097 41.3875C24.8597 41.4375 24.2847 43.675 23.5097 46.35L22.3424 50.4045C22.2022 50.8915 21.777 51.2423 21.2722 51.2875C19.5847 51.45 17.8347 52.6375 16.8347 54.2875C16.1097 55.5125 16.0097 56.2375 16.0097 60.3625C16.0097 62.3714 17.6383 64 19.6472 64H32.0097H44.2222C46.314 64 48.0097 62.3043 48.0097 60.2125C48.0097 57.2 47.9723 56.275 47.8097 55.6875C47.2098 53.35 45.1098 51.5375 42.6973 51.275C42.243 51.222 41.8651 50.9013 41.7388 50.4617L40.5472 46.3125C39.7847 43.6375 39.1723 41.425 39.1973 41.4C39.2223 41.375 39.8722 41.2375 40.6597 41.1125C54.1847 38.8125 62.5348 28.25 63.8973 11.75C64.0847 9.4625 63.9473 8.5375 63.2348 7.0875C62.3598 5.35 60.7972 4.075 58.9347 3.55C58.3597 3.3875 57.4098 3.3375 54.7348 3.2875L52.872 3.25399C51.9769 3.2379 51.2598 2.50771 51.2598 1.6125C51.2598 0.721939 50.5378 0 49.6473 0H31.9972H14.3503C13.4678 0 12.768 0.744152 12.8222 1.625ZM13.1847 10.275C13.2222 10.575 13.3722 11.9 13.5097 13.2375C14.3597 21.2125 16.3597 28.225 19.0097 32.5625C19.2847 33.0125 19.4597 33.375 19.4097 33.375C19.3597 33.375 18.8847 33.1625 18.3722 32.9C12.8472 30.125 9.04725 24.6 7.34725 16.875C6.72225 14.0875 6.27225 10.225 6.52225 9.9125C6.63475 9.7875 7.34725 9.75 9.89725 9.75H12.5935C12.8951 9.75 13.1491 9.97552 13.1847 10.275ZM57.4973 9.9125C57.7973 10.2875 57.1597 15.025 56.3848 18.0625C54.6973 24.7125 51.4347 29.5125 46.6847 32.325C45.8348 32.825 44.7348 33.375 44.5597 33.375C44.5348 33.375 44.6973 33.075 44.9347 32.7125C47.3473 28.95 49.3223 22.525 50.3098 15.25C50.4973 13.8125 50.8848 10.3 50.8848 9.9375C50.8848 9.775 51.2973 9.75 54.1223 9.75C56.6598 9.75 57.3848 9.7875 57.4973 9.9125Z" fill="#00B89D"/>
</g>
</svg>
